<svg id="svg" version="1.1" xmlns="http://www.w3.org/2000/svg" xmlns:xlink="http://www.w3.org/1999/xlink" width="400" height="400" viewBox="0, 0, 400,400"><g id="svgg"><path id="path0" d="M171.777 139.736 C 172.476 139.822,173.618 139.822,174.316 139.736 C 175.015 139.649,174.443 139.578,173.047 139.578 C 171.650 139.578,171.079 139.649,171.777 139.736 M166.602 140.700 C 161.153 141.014,157.190 141.565,153.171 142.568 C 152.230 142.804,151.367 142.903,151.254 142.790 C 151.141 142.677,150.828 142.768,150.559 142.991 C 150.220 143.273,149.992 143.271,149.816 142.988 C 149.442 142.382,148.828 142.491,148.828 143.164 C 148.828 143.870,148.372 143.919,147.734 143.281 C 147.370 142.917,147.266 142.960,147.266 143.477 C 147.266 144.254,146.832 144.332,146.172 143.672 C 145.807 143.307,145.703 143.344,145.703 143.836 C 145.703 144.227,145.238 144.571,144.491 144.736 C 143.824 144.882,142.503 145.345,141.556 145.763 C 140.609 146.182,139.676 146.427,139.482 146.307 C 139.288 146.187,139.070 146.261,138.998 146.471 C 138.926 146.681,138.516 146.912,138.086 146.985 C 137.303 147.117,130.351 150.290,128.516 151.352 C 127.979 151.663,126.484 152.475,125.195 153.157 C 123.205 154.210,120.817 155.658,117.906 157.580 C 106.690 164.981,97.496 174.693,96.640 180.042 C 96.324 182.021,96.394 182.021,100.224 180.035 C 110.606 174.652,115.182 182.927,108.841 195.620 C 100.210 212.902,103.927 238.839,117.483 255.916 C 118.502 257.200,119.787 258.836,120.338 259.553 C 126.539 267.612,139.522 278.623,147.989 283.005 C 152.315 285.243,152.492 285.085,150.630 280.640 C 148.292 275.060,147.539 267.525,148.395 258.267 C 149.809 242.961,154.873 231.866,165.351 221.119 C 169.268 217.101,173.409 213.661,177.236 211.244 L 179.688 209.696 179.688 175.380 L 179.688 141.063 178.027 140.856 C 174.999 140.476,171.343 140.427,166.602 140.700 " stroke="none" fill="#fbca0a" fill-rule="evenodd"></path><path id="path1" d="M279.297 70.898 C 278.760 71.639,278.101 72.249,277.832 72.255 C 277.563 72.261,277.344 72.646,277.344 73.112 C 277.344 73.577,277.224 73.838,277.077 73.691 C 276.148 72.763,275.988 76.455,276.217 93.555 C 276.349 103.438,276.481 124.839,276.510 141.113 C 276.544 160.544,276.697 170.703,276.953 170.703 C 277.210 170.703,277.362 181.057,277.396 200.879 C 277.424 217.476,277.556 236.449,277.688 243.043 L 277.930 255.031 281.631 249.488 C 283.720 246.359,286.877 240.837,288.880 236.807 C 290.832 232.881,292.572 229.805,292.747 229.971 C 292.922 230.137,292.944 229.878,292.796 229.395 C 292.617 228.812,292.688 228.516,293.008 228.516 C 293.273 228.516,293.388 228.414,293.263 228.289 C 292.937 227.963,294.155 224.572,294.518 224.796 C 294.685 224.899,294.917 224.271,295.034 223.399 C 295.151 222.522,295.567 221.571,295.963 221.271 C 296.357 220.972,296.526 220.722,296.339 220.716 C 296.151 220.709,296.239 220.406,296.534 220.042 C 296.898 219.593,296.914 219.475,296.582 219.675 C 296.313 219.836,296.094 219.782,296.094 219.554 C 296.094 219.327,296.226 219.141,296.387 219.140 C 296.548 219.140,296.707 218.662,296.741 218.078 C 296.775 217.494,296.976 216.958,297.188 216.888 C 297.400 216.817,297.489 216.436,297.385 216.041 C 297.282 215.646,297.389 215.204,297.622 215.060 C 297.856 214.916,298.047 214.446,298.047 214.016 C 298.047 213.587,298.179 213.316,298.340 213.415 C 298.501 213.513,298.647 212.962,298.665 212.190 C 298.683 211.418,298.903 210.717,299.153 210.634 C 299.425 210.543,299.513 210.103,299.371 209.538 C 299.241 209.019,299.305 208.594,299.513 208.594 C 299.721 208.594,299.808 208.154,299.705 207.617 C 299.594 207.039,299.699 206.641,299.962 206.641 C 300.240 206.641,300.314 206.276,300.160 205.664 C 300.012 205.072,300.082 204.688,300.339 204.688 C 300.600 204.688,300.672 204.241,300.527 203.516 C 300.381 202.782,300.454 202.344,300.723 202.344 C 300.992 202.344,301.065 201.906,300.918 201.172 C 300.766 200.414,300.842 200.000,301.132 200.000 C 301.398 200.000,301.564 199.403,301.539 198.535 C 301.516 197.729,301.689 196.279,301.924 195.313 C 302.483 193.015,302.891 175.676,302.361 176.758 C 302.098 177.294,302.054 176.449,302.220 174.062 C 302.414 171.256,302.362 170.646,301.951 170.900 C 301.554 171.145,301.490 170.908,301.665 169.830 C 301.943 168.118,301.581 165.177,301.127 165.457 C 300.943 165.571,300.900 165.128,301.031 164.473 C 301.188 163.687,301.114 163.281,300.812 163.281 C 300.501 163.281,300.437 162.844,300.612 161.914 C 300.788 160.973,300.723 160.547,300.403 160.547 C 300.089 160.547,300.022 160.165,300.195 159.375 C 300.369 158.586,300.301 158.203,299.989 158.203 C 299.684 158.203,299.612 157.854,299.779 157.189 C 299.921 156.622,299.839 155.941,299.593 155.644 C 299.350 155.352,299.257 154.941,299.387 154.732 C 299.516 154.522,299.429 154.232,299.193 154.086 C 298.958 153.940,298.870 153.401,298.999 152.887 C 299.143 152.313,299.063 151.953,298.790 151.953 C 298.542 151.953,298.434 151.616,298.546 151.191 C 298.655 150.771,298.599 150.376,298.420 150.312 C 298.241 150.248,298.024 149.756,297.937 149.219 C 297.850 148.682,297.565 147.720,297.304 147.082 C 297.043 146.444,296.908 145.617,297.006 145.245 C 297.103 144.873,297.063 144.516,296.916 144.452 C 296.471 144.258,295.277 139.436,295.560 138.978 C 295.706 138.741,295.645 138.661,295.423 138.799 C 295.185 138.946,294.935 138.395,294.807 137.436 C 294.688 136.550,294.422 135.718,294.216 135.588 C 293.693 135.257,292.519 131.661,292.791 131.221 C 292.914 131.022,292.808 130.859,292.556 130.859 C 292.284 130.859,292.182 130.530,292.307 130.054 C 292.432 129.577,292.304 129.167,291.994 129.048 C 291.706 128.938,290.914 127.410,290.233 125.654 C 289.553 123.898,288.484 121.460,287.857 120.236 C 287.231 119.013,286.719 117.738,286.719 117.404 C 286.719 117.070,286.570 116.797,286.387 116.797 C 286.205 116.797,285.734 116.050,285.341 115.137 C 284.948 114.224,284.559 113.357,284.477 113.210 C 284.299 112.893,285.584 112.159,286.592 112.002 C 286.984 111.941,287.552 111.738,287.853 111.549 C 288.261 111.295,288.319 111.349,288.079 111.756 C 287.889 112.079,288.078 112.023,288.539 111.620 C 288.969 111.244,289.438 111.052,289.580 111.195 C 289.722 111.337,290.162 111.161,290.557 110.804 C 290.951 110.447,291.376 110.256,291.499 110.380 C 291.833 110.713,294.141 109.428,294.141 108.909 C 294.141 108.664,294.251 108.574,294.385 108.708 C 294.717 109.040,296.875 107.896,296.875 107.389 C 296.875 107.167,297.053 107.095,297.270 107.229 C 297.487 107.363,298.190 106.948,298.832 106.306 C 299.475 105.664,300.000 105.223,300.000 105.326 C 300.000 105.429,300.483 105.222,301.074 104.867 C 302.455 104.037,305.078 100.679,305.078 99.743 C 305.077 98.271,302.167 95.777,300.266 95.619 C 299.690 95.572,299.219 95.376,299.219 95.186 C 299.219 94.995,298.946 94.943,298.613 95.071 C 298.279 95.199,298.101 95.150,298.217 94.962 C 298.511 94.487,296.690 94.190,295.966 94.595 C 295.584 94.809,295.164 94.718,294.785 94.338 C 294.097 93.651,292.914 93.571,292.314 94.171 C 291.873 94.611,286.431 94.461,284.096 93.944 C 283.181 93.741,282.671 93.835,282.213 94.294 C 281.514 94.992,279.866 95.136,279.492 94.531 C 279.359 94.316,279.041 94.143,278.786 94.147 C 278.506 94.150,278.554 94.304,278.906 94.531 C 279.407 94.855,279.393 94.911,278.809 94.916 C 278.115 94.922,278.042 94.752,277.953 92.916 C 277.916 92.165,278.056 91.945,278.468 92.103 C 278.827 92.241,278.933 92.156,278.757 91.871 C 278.425 91.335,279.276 88.281,279.757 88.281 C 279.942 88.281,279.983 87.842,279.848 87.305 C 279.713 86.766,279.773 86.328,279.982 86.328 C 280.190 86.328,280.276 85.889,280.174 85.352 C 280.071 84.814,280.153 84.375,280.356 84.375 C 280.558 84.375,280.647 83.848,280.552 83.203 C 280.457 82.559,280.557 82.031,280.773 82.031 C 280.989 82.031,281.271 81.758,281.399 81.425 C 281.532 81.077,281.467 80.921,281.246 81.057 C 281.033 81.189,280.859 81.012,280.859 80.664 C 280.859 80.316,280.991 80.113,281.152 80.213 C 281.518 80.439,281.656 78.463,281.625 73.438 C 281.604 69.923,280.711 68.950,279.297 70.898 " stroke="none" fill="#e75733" fill-rule="evenodd"></path><path id="path2" d="M266.992 70.587 C 266.563 71.102,265.909 71.887,265.539 72.332 C 265.169 72.776,264.762 73.514,264.635 73.972 C 264.507 74.430,263.986 75.771,263.477 76.953 C 262.968 78.135,262.260 80.332,261.904 81.836 C 261.549 83.340,261.159 84.834,261.039 85.156 C 260.919 85.479,260.860 86.135,260.907 86.615 C 260.953 87.094,260.866 87.690,260.713 87.938 C 260.184 88.794,260.519 103.304,261.090 104.227 C 261.261 104.505,261.297 105.151,261.168 105.662 C 261.040 106.174,261.125 106.711,261.358 106.855 C 261.595 107.001,261.675 107.545,261.538 108.088 C 261.404 108.622,261.499 109.305,261.748 109.606 C 261.997 109.906,262.109 110.504,261.997 110.935 C 261.884 111.366,261.952 111.817,262.147 111.938 C 262.343 112.058,262.395 112.586,262.264 113.110 C 262.108 113.730,262.191 114.063,262.502 114.063 C 262.810 114.063,262.918 114.478,262.807 115.234 C 262.713 115.879,262.754 116.406,262.898 116.406 C 263.324 116.406,264.437 122.047,264.194 122.976 C 264.054 123.514,264.150 123.828,264.456 123.828 C 264.786 123.828,264.867 124.200,264.710 124.985 C 264.583 125.621,264.649 126.247,264.858 126.376 C 265.067 126.505,265.129 127.041,264.997 127.568 C 264.864 128.096,264.965 128.778,265.222 129.087 C 265.478 129.396,265.636 130.141,265.573 130.742 C 265.510 131.344,265.590 132.049,265.750 132.309 C 265.911 132.568,266.023 133.359,266.000 134.066 C 265.976 134.773,266.132 136.494,266.346 137.891 C 266.782 140.744,266.877 151.129,266.473 151.747 C 266.234 152.114,266.077 153.507,266.024 155.742 C 266.013 156.215,265.838 156.704,265.636 156.829 C 265.434 156.954,265.361 157.297,265.473 157.590 C 265.586 157.884,265.498 158.235,265.278 158.371 C 265.058 158.507,264.970 158.859,265.083 159.153 C 265.195 159.446,265.100 159.803,264.870 159.944 C 264.641 160.086,264.453 160.458,264.453 160.771 C 264.453 161.566,262.789 164.052,262.253 164.058 C 262.009 164.060,261.717 164.417,261.604 164.850 C 261.367 165.755,258.072 167.370,257.169 167.024 C 256.847 166.900,256.318 167.064,255.994 167.388 C 255.671 167.711,255.254 167.882,255.069 167.768 C 254.884 167.654,254.063 167.486,253.245 167.395 C 250.497 167.090,249.029 166.739,248.158 166.180 C 247.682 165.875,247.023 165.625,246.693 165.625 C 246.364 165.625,246.094 165.439,246.094 165.211 C 246.094 164.984,245.918 164.906,245.703 165.039 C 245.488 165.172,245.313 165.101,245.313 164.882 C 245.313 164.663,244.609 164.294,243.750 164.063 C 242.891 163.831,242.188 163.492,242.188 163.309 C 242.188 163.125,241.780 162.873,241.283 162.748 C 240.785 162.623,239.968 162.165,239.465 161.729 C 238.963 161.294,238.380 160.938,238.169 160.938 C 237.437 160.938,239.679 162.422,243.463 164.444 C 245.554 165.562,247.291 166.504,247.323 166.539 C 247.354 166.573,247.524 183.916,247.699 205.078 C 248.022 243.904,248.040 244.744,248.577 245.612 C 248.740 245.877,248.789 246.231,248.685 246.400 C 248.429 246.814,249.215 250.470,249.687 251.055 C 249.895 251.314,249.955 251.870,249.821 252.292 C 249.687 252.714,249.741 253.160,249.940 253.283 C 250.602 253.692,251.311 261.433,251.340 268.555 C 251.366 275.356,250.644 280.206,248.945 284.634 C 247.955 287.214,256.626 280.533,263.535 273.394 C 265.978 270.868,270.203 266.045,273.760 261.719 C 275.121 260.065,281.318 250.976,282.018 249.609 C 282.796 248.089,281.894 249.145,279.785 252.224 L 277.861 255.034 277.602 239.172 C 277.460 230.447,277.344 211.473,277.344 197.006 C 277.344 179.731,277.210 170.703,276.953 170.703 C 276.697 170.703,276.544 160.543,276.508 141.113 C 276.478 124.839,276.346 103.525,276.215 93.750 L 275.977 75.977 274.817 78.906 C 274.179 80.518,273.634 81.924,273.605 82.031 C 273.047 84.138,271.801 85.604,271.135 84.937 C 271.005 84.806,270.898 83.395,270.898 81.802 C 270.898 80.209,270.747 78.906,270.563 78.906 C 270.378 78.906,270.299 78.291,270.387 77.539 C 270.474 76.787,270.392 76.172,270.203 76.172 C 270.014 76.172,269.976 75.645,270.117 75.000 C 270.267 74.316,270.214 73.828,269.989 73.828 C 269.778 73.828,269.704 73.449,269.825 72.986 C 269.976 72.409,269.903 72.231,269.593 72.423 C 269.344 72.577,269.141 72.520,269.141 72.298 C 269.141 72.076,268.833 71.389,268.457 70.772 L 267.773 69.649 266.992 70.587 M246.365 240.918 C 246.702 241.938,247.153 242.949,247.366 243.164 C 247.624 243.423,247.679 243.358,247.532 242.969 C 247.410 242.646,247.103 241.636,246.851 240.723 C 246.598 239.810,246.247 239.063,246.071 239.063 C 245.895 239.063,246.027 239.897,246.365 240.918 " stroke="none" fill="#eb7534" fill-rule="evenodd"></path><path id="path3" d="M113.878 251.855 C 114.461 252.876,115.396 254.150,115.955 254.688 L 116.970 255.664 116.155 254.688 C 115.707 254.150,114.860 252.876,114.274 251.855 C 113.687 250.835,113.119 250.000,113.012 250.000 C 112.904 250.000,113.294 250.835,113.878 251.855 M148.958 254.948 C 147.665 264.010,148.898 276.809,151.569 282.044 C 153.130 285.104,152.195 285.534,148.291 283.550 C 139.086 278.874,127.376 268.804,119.154 258.496 C 117.997 257.046,116.974 255.859,116.879 255.859 C 116.271 255.859,121.998 262.922,126.223 267.383 C 127.647 268.887,129.312 270.688,129.923 271.387 C 130.534 272.085,131.319 272.656,131.667 272.656 C 132.380 272.656,133.594 273.844,133.594 274.542 C 133.594 274.794,133.831 275.000,134.120 275.000 C 134.409 275.000,135.051 275.352,135.547 275.781 C 136.042 276.211,136.597 276.563,136.779 276.563 C 136.960 276.563,137.109 276.826,137.109 277.148 C 137.109 277.471,137.422 277.734,137.804 277.734 C 138.187 277.734,138.753 278.086,139.063 278.516 C 139.372 278.945,139.823 279.297,140.065 279.297 C 140.306 279.297,140.997 279.721,141.601 280.240 C 142.205 280.759,143.623 281.651,144.753 282.223 C 145.883 282.794,147.113 283.600,147.488 284.014 C 147.862 284.427,148.492 284.766,148.889 284.766 C 149.285 284.766,149.609 284.960,149.609 285.198 C 149.609 285.436,149.873 285.529,150.195 285.406 C 150.518 285.282,150.781 285.351,150.781 285.559 C 150.781 285.767,151.129 285.938,151.555 285.938 C 152.698 285.938,152.994 284.223,152.153 282.478 C 150.928 279.937,150.055 277.023,150.271 276.198 C 150.387 275.754,150.305 275.391,150.089 275.391 C 149.107 275.391,148.617 264.009,149.283 256.677 C 149.658 252.547,149.455 251.466,148.958 254.948 M279.055 254.395 C 277.711 256.676,277.623 256.871,278.308 256.055 C 279.101 255.109,279.785 253.906,279.529 253.906 C 279.427 253.906,279.213 254.126,279.055 254.395 M250.120 263.867 C 250.138 272.168,250.069 274.181,249.750 274.697 C 249.620 274.908,249.450 275.885,249.373 276.869 C 249.295 277.852,249.047 278.771,248.821 278.910 C 248.596 279.050,248.524 279.458,248.661 279.816 C 248.811 280.205,248.720 280.469,248.438 280.469 C 248.177 280.469,248.062 280.727,248.183 281.042 C 248.304 281.358,248.232 281.721,248.023 281.850 C 247.814 281.980,247.726 282.219,247.827 282.382 C 247.928 282.546,247.787 283.456,247.514 284.406 C 247.005 286.173,247.065 287.500,247.653 287.500 C 247.834 287.500,248.261 287.607,248.601 287.737 C 248.984 287.884,249.219 287.765,249.219 287.425 C 249.219 287.123,249.831 286.654,250.578 286.384 C 251.326 286.114,252.448 285.419,253.070 284.841 C 255.496 282.588,257.221 281.250,257.702 281.250 C 257.977 281.250,258.203 281.102,258.203 280.922 C 258.203 280.742,259.167 279.555,260.346 278.285 C 261.524 277.016,262.491 276.143,262.494 276.345 C 262.497 276.548,262.896 276.193,263.379 275.557 C 264.886 273.572,265.750 272.593,267.980 270.343 C 269.168 269.145,270.350 267.681,270.608 267.090 C 270.866 266.499,271.344 266.016,271.671 266.016 C 271.998 266.016,272.266 265.765,272.266 265.460 C 272.266 265.154,272.842 264.143,273.547 263.214 C 274.948 261.366,277.002 258.348,277.489 257.422 C 278.027 256.398,276.042 258.779,274.219 261.344 C 267.519 270.768,255.752 282.738,249.897 286.084 C 247.418 287.502,247.222 286.943,248.562 282.278 C 250.773 274.580,251.531 265.314,250.467 258.984 C 250.181 257.287,250.108 258.311,250.120 263.867 " stroke="none" fill="#bdb2a2" fill-rule="evenodd"></path><path id="path4" d="M212.927 148.567 L 214.721 149.408 214.977 163.440 C 215.119 171.157,215.234 183.691,215.234 191.293 L 215.234 205.114 213.770 204.890 C 212.620 204.715,212.775 204.824,214.488 205.397 C 223.596 208.442,232.978 216.255,239.403 226.145 C 240.720 228.172,241.797 229.990,241.797 230.186 C 241.797 230.383,242.129 231.010,242.534 231.580 C 242.940 232.151,243.855 234.023,244.568 235.742 C 245.281 237.461,245.977 238.955,246.115 239.063 C 246.252 239.170,246.673 240.313,247.051 241.602 C 247.429 242.891,247.812 244.190,247.902 244.490 C 248.240 245.615,248.257 244.556,247.999 238.477 C 247.853 235.039,247.716 218.867,247.693 202.539 C 247.670 186.211,247.539 171.403,247.401 169.633 L 247.150 166.414 243.399 164.411 C 241.336 163.310,239.014 161.906,238.238 161.293 C 237.463 160.679,236.739 160.267,236.629 160.376 C 236.520 160.485,235.221 159.761,233.743 158.766 C 232.264 157.771,230.750 156.897,230.378 156.823 C 230.007 156.749,228.927 156.155,227.979 155.503 C 227.032 154.851,225.303 153.961,224.139 153.525 C 222.974 153.089,221.636 152.375,221.166 151.937 C 220.697 151.499,220.313 151.242,220.313 151.366 C 220.313 151.489,219.917 151.371,219.434 151.103 C 218.950 150.835,218.423 150.653,218.262 150.698 C 218.101 150.744,217.969 150.576,217.969 150.326 C 217.969 150.075,217.856 149.982,217.719 150.120 C 217.581 150.257,217.010 150.120,216.449 149.815 C 215.091 149.074,211.682 147.647,211.376 147.691 C 211.242 147.710,211.940 148.104,212.927 148.567 M203.711 204.297 C 203.567 204.529,204.032 204.688,204.860 204.688 C 205.624 204.688,206.250 204.512,206.250 204.297 C 206.250 204.082,205.733 203.906,205.101 203.906 C 204.469 203.906,203.844 204.082,203.711 204.297 M208.452 204.492 C 208.576 204.814,208.813 205.078,208.978 205.078 C 209.144 205.078,209.498 204.814,209.766 204.492 C 210.177 203.997,210.095 203.906,209.240 203.906 C 208.501 203.906,208.288 204.064,208.452 204.492 M251.172 268.699 C 251.172 273.044,250.478 277.538,249.055 282.410 C 248.523 284.229,248.165 285.795,248.259 285.889 C 248.597 286.228,251.400 284.681,252.930 283.312 C 254.707 281.721,254.124 281.971,251.630 283.870 C 249.720 285.324,248.649 285.555,249.004 284.435 C 250.855 278.604,252.552 264.844,251.421 264.844 C 251.284 264.844,251.172 266.579,251.172 268.699 M263.849 273.145 L 262.305 274.805 263.965 273.261 C 265.509 271.825,265.805 271.484,265.509 271.484 C 265.445 271.484,264.698 272.231,263.849 273.145 M259.752 277.246 L 257.617 279.492 259.863 277.357 C 261.950 275.374,262.288 275.000,261.998 275.000 C 261.937 275.000,260.927 276.011,259.752 277.246 M255.838 280.762 L 254.492 282.227 255.957 280.880 C 257.320 279.627,257.601 279.297,257.303 279.297 C 257.238 279.297,256.579 279.956,255.838 280.762 " stroke="none" fill="#f29430" fill-rule="evenodd"></path><path id="path5" d="M168.359 140.224 C 166.832 140.403,167.763 140.492,171.583 140.533 C 174.538 140.564,177.570 140.705,178.321 140.846 L 179.688 141.103 179.688 175.393 L 179.688 209.684 177.637 210.972 C 174.928 212.674,169.538 216.851,168.555 218.011 C 167.710 219.006,168.300 218.662,169.963 217.188 C 172.603 214.848,173.098 214.453,173.391 214.453 C 173.573 214.453,174.317 213.927,175.045 213.285 C 175.772 212.643,176.711 212.004,177.130 211.866 C 177.550 211.728,178.144 211.365,178.450 211.059 C 178.756 210.753,179.248 210.594,179.543 210.707 C 179.837 210.820,180.078 210.750,180.078 210.551 C 180.078 210.034,183.165 208.328,184.668 208.015 C 185.366 207.870,185.938 207.589,185.938 207.391 C 185.938 207.193,186.069 207.060,186.230 207.095 C 186.392 207.130,187.402 206.761,188.477 206.275 C 189.551 205.789,190.869 205.367,191.406 205.337 C 191.943 205.308,192.510 205.105,192.665 204.888 C 192.853 204.624,193.177 204.636,193.639 204.924 C 194.173 205.257,194.429 205.223,194.756 204.777 C 195.087 204.324,195.355 204.292,195.988 204.631 C 196.627 204.973,196.843 204.942,197.019 204.485 C 197.274 203.821,198.481 203.715,199.070 204.304 C 199.341 204.575,199.961 204.535,201.004 204.181 C 202.899 203.536,208.075 203.682,212.054 204.493 C 213.634 204.815,214.996 205.078,215.081 205.078 C 215.326 205.078,215.258 178.759,214.973 163.443 L 214.713 149.414 211.946 148.133 C 210.425 147.428,208.389 146.613,207.422 146.322 C 206.455 146.030,205.049 145.521,204.297 145.190 C 202.970 144.606,201.673 144.099,201.074 143.930 C 200.913 143.885,200.649 143.805,200.488 143.754 C 200.327 143.702,199.888 143.691,199.512 143.730 C 199.136 143.768,198.828 143.593,198.828 143.342 C 198.828 143.085,198.557 142.989,198.207 143.124 C 197.865 143.255,197.389 143.241,197.149 143.092 C 196.909 142.944,196.354 142.780,195.915 142.727 C 195.476 142.675,193.926 142.352,192.471 142.009 C 186.023 140.488,173.804 139.584,168.359 140.224 M162.891 140.625 L 161.914 140.938 162.965 140.977 C 163.543 140.998,164.125 140.840,164.258 140.625 C 164.532 140.181,164.277 140.181,162.891 140.625 M162.479 224.121 L 161.133 225.586 162.598 224.240 C 163.961 222.987,164.242 222.656,163.944 222.656 C 163.879 222.656,163.219 223.315,162.479 224.121 " stroke="none" fill="#f3a821" fill-rule="evenodd"></path><path id="path6" d="M281.641 73.610 C 281.641 74.349,281.816 75.063,282.031 75.195 C 282.267 75.341,282.422 74.809,282.422 73.851 C 282.422 72.979,282.246 72.266,282.031 72.266 C 281.816 72.266,281.641 72.870,281.641 73.610 M264.844 130.469 C 264.844 131.198,264.948 131.302,265.313 130.938 C 265.677 130.573,265.677 130.365,265.313 130.000 C 264.948 129.635,264.844 129.740,264.844 130.469 M265.234 133.789 C 265.234 134.371,265.403 134.708,265.625 134.570 C 265.840 134.438,266.016 134.086,266.016 133.789 C 266.016 133.492,265.840 133.141,265.625 133.008 C 265.403 132.870,265.234 133.207,265.234 133.789 M265.625 138.454 C 265.625 139.003,265.801 139.453,266.016 139.453 C 266.230 139.453,266.406 139.112,266.406 138.695 C 266.406 138.278,266.230 137.828,266.016 137.695 C 265.794 137.558,265.625 137.887,265.625 138.454 M164.453 139.844 C 164.453 140.343,166.806 140.343,167.578 139.844 C 168.002 139.570,167.651 139.463,166.309 139.459 C 165.288 139.456,164.453 139.629,164.453 139.844 M180.664 139.869 C 181.766 140.307,183.685 140.307,183.414 139.868 C 183.289 139.667,182.444 139.515,181.535 139.530 C 180.305 139.551,180.082 139.638,180.664 139.869 M160.938 140.234 C 160.938 140.728,161.736 140.728,162.500 140.234 C 162.957 139.939,162.849 139.854,162.012 139.850 C 161.421 139.846,160.938 140.020,160.938 140.234 M185.742 140.424 C 186.947 140.954,187.686 140.851,187.288 140.207 C 187.164 140.007,186.502 139.858,185.817 139.875 L 184.570 139.907 185.742 140.424 M158.203 140.625 C 158.203 140.840,158.456 141.016,158.766 141.016 C 159.076 141.016,159.438 140.840,159.570 140.625 C 159.703 140.410,159.450 140.234,159.007 140.234 C 158.565 140.234,158.203 140.410,158.203 140.625 M188.085 140.624 C 188.218 140.839,188.698 141.016,189.151 141.016 C 190.140 141.016,189.760 140.525,188.638 140.353 C 188.182 140.284,187.946 140.399,188.085 140.624 M155.859 141.016 C 155.859 141.230,156.123 141.406,156.445 141.406 C 156.768 141.406,157.031 141.230,157.031 141.016 C 157.031 140.801,156.768 140.625,156.445 140.625 C 156.123 140.625,155.859 140.801,155.859 141.016 M191.009 141.203 C 191.259 141.504,191.722 141.651,192.038 141.530 C 192.746 141.258,192.558 141.042,191.424 140.824 C 190.716 140.687,190.639 140.758,191.009 141.203 M153.418 141.285 C 153.042 141.383,152.734 141.625,152.734 141.823 C 152.734 142.334,154.420 142.014,154.602 141.468 C 154.757 141.003,154.594 140.977,153.418 141.285 M193.141 141.443 C 193.021 141.638,193.094 141.797,193.304 141.797 C 193.514 141.797,193.964 141.904,194.304 142.034 C 194.644 142.164,194.922 142.097,194.922 141.884 C 194.922 141.367,193.419 140.994,193.141 141.443 M195.508 142.188 C 195.641 142.402,196.013 142.578,196.335 142.578 C 196.657 142.578,196.812 142.402,196.680 142.188 C 196.547 141.973,196.175 141.797,195.852 141.797 C 195.530 141.797,195.375 141.973,195.508 142.188 M199.023 142.969 C 199.156 143.184,199.529 143.359,199.851 143.359 C 200.173 143.359,200.328 143.184,200.195 142.969 C 200.063 142.754,199.690 142.578,199.368 142.578 C 199.046 142.578,198.891 142.754,199.023 142.969 M203.613 144.238 C 203.703 144.507,203.937 144.729,204.134 144.733 C 204.331 144.736,204.712 144.878,204.980 145.049 C 205.249 145.219,205.469 145.254,205.469 145.126 C 205.469 144.999,205.820 145.083,206.250 145.313 C 206.689 145.548,207.031 145.572,207.031 145.369 C 207.031 145.170,206.325 144.724,205.461 144.378 C 203.571 143.622,203.404 143.609,203.613 144.238 M139.941 145.181 C 139.142 145.503,139.388 146.038,140.234 145.816 C 140.664 145.704,141.016 145.457,141.016 145.267 C 141.016 144.895,140.711 144.870,139.941 145.181 M210.160 146.392 C 210.164 146.636,213.137 148.076,213.389 147.956 C 213.437 147.934,213.916 148.141,214.453 148.417 C 215.332 148.869,215.371 148.859,214.844 148.314 C 214.164 147.611,210.154 145.966,210.160 146.392 M132.520 148.338 C 131.821 148.686,131.250 149.118,131.250 149.300 C 131.250 149.693,133.438 148.615,133.787 148.050 C 134.089 147.562,134.072 147.566,132.520 148.338 M127.121 150.949 C 126.707 151.251,126.492 151.622,126.642 151.772 C 126.793 151.923,127.209 151.753,127.567 151.395 C 127.925 151.037,128.140 150.666,128.045 150.571 C 127.950 150.476,127.534 150.646,127.121 150.949 M124.868 152.195 C 124.258 152.525,123.840 152.876,123.938 152.975 C 124.199 153.236,126.172 152.278,126.172 151.890 C 126.172 151.480,126.198 151.474,124.868 152.195 M223.828 152.679 C 223.828 153.080,225.011 153.635,225.285 153.361 C 225.380 153.266,225.091 152.992,224.643 152.752 C 224.194 152.512,223.828 152.479,223.828 152.679 M119.525 155.487 C 118.992 155.897,118.741 156.237,118.968 156.241 C 119.533 156.253,120.946 155.191,120.697 154.941 C 120.586 154.831,120.059 155.077,119.525 155.487 M110.541 161.920 C 109.816 162.669,109.399 163.281,109.616 163.281 C 110.121 163.281,112.311 161.009,112.054 160.752 C 111.948 160.646,111.267 161.171,110.541 161.920 M104.291 167.389 C 103.566 168.137,103.149 168.750,103.366 168.750 C 103.871 168.750,106.061 166.478,105.804 166.221 C 105.698 166.114,105.017 166.640,104.291 167.389 M101.365 170.315 C 100.975 170.746,100.774 171.216,100.918 171.361 C 101.177 171.620,102.307 170.391,102.331 169.824 C 102.351 169.360,102.126 169.474,101.365 170.315 M98.979 173.407 C 97.881 174.668,96.484 176.971,96.484 177.520 C 96.484 178.078,97.241 177.646,97.458 176.963 C 97.592 176.539,98.321 175.293,99.077 174.194 C 100.712 171.818,100.668 171.467,98.979 173.407 M101.287 180.142 C 98.346 181.688,98.298 182.033,101.213 180.676 C 103.469 179.626,106.488 179.369,107.872 180.110 C 108.744 180.577,109.346 180.283,108.746 179.683 C 107.660 178.597,103.772 178.836,101.287 180.142 M95.799 182.129 C 95.887 182.397,96.297 182.662,96.710 182.717 C 97.593 182.835,98.731 182.195,98.338 181.802 C 98.188 181.652,97.769 181.774,97.407 182.073 C 96.895 182.496,96.711 182.508,96.584 182.129 C 96.493 181.860,96.243 181.641,96.029 181.641 C 95.814 181.641,95.710 181.860,95.799 182.129 M111.371 184.766 C 111.388 186.388,111.420 186.442,111.777 185.464 C 112.038 184.750,112.032 184.176,111.758 183.706 C 111.435 183.150,111.356 183.367,111.371 184.766 M110.932 187.129 C 110.929 187.440,110.815 188.135,110.679 188.672 C 110.543 189.209,110.531 189.561,110.652 189.453 C 110.773 189.346,110.902 189.082,110.938 188.867 C 110.974 188.652,111.192 188.249,111.423 187.972 C 111.723 187.610,111.713 187.338,111.390 187.015 C 111.047 186.672,110.936 186.700,110.932 187.129 M108.547 193.848 C 108.522 194.116,108.522 194.468,108.547 194.629 C 108.573 194.790,108.399 194.922,108.161 194.922 C 107.924 194.922,107.826 195.174,107.944 195.483 C 108.062 195.791,107.949 196.129,107.693 196.233 C 107.343 196.375,107.341 196.430,107.686 196.454 C 108.116 196.482,109.375 194.422,109.375 193.690 C 109.375 193.161,108.599 193.309,108.547 193.848 M106.201 199.414 C 106.098 200.650,106.043 200.818,105.651 201.088 C 105.160 201.428,104.121 205.423,104.441 205.743 C 104.566 205.869,104.754 205.726,104.857 205.427 C 106.086 201.873,107.031 199.058,107.031 198.955 C 107.031 198.505,106.241 198.942,106.201 199.414 M206.521 204.156 C 206.060 204.617,206.677 205.078,207.738 205.066 C 208.747 205.054,208.758 205.030,208.031 204.480 C 207.194 203.847,206.894 203.783,206.521 204.156 M197.461 204.688 C 197.328 204.902,197.571 205.078,198.001 205.078 C 198.430 205.078,198.891 204.902,199.023 204.688 C 199.156 204.473,198.913 204.297,198.484 204.297 C 198.054 204.297,197.594 204.473,197.461 204.688 M213.105 205.806 C 213.627 206.280,216.102 207.075,216.334 206.843 C 216.440 206.737,215.890 206.385,215.112 206.060 C 213.538 205.402,212.519 205.273,213.105 205.806 M189.160 206.262 C 187.814 206.803,188.094 207.425,189.453 206.912 C 190.098 206.668,190.625 206.332,190.625 206.164 C 190.625 205.786,190.288 205.809,189.160 206.262 M103.906 207.250 C 103.906 207.817,104.075 208.145,104.297 208.008 C 104.512 207.875,104.688 207.425,104.688 207.008 C 104.688 206.591,104.512 206.250,104.297 206.250 C 104.082 206.250,103.906 206.700,103.906 207.250 M103.516 209.570 C 103.516 210.107,103.691 210.547,103.906 210.547 C 104.121 210.547,104.297 210.107,104.297 209.570 C 104.297 209.033,104.121 208.594,103.906 208.594 C 103.691 208.594,103.516 209.033,103.516 209.570 M181.934 209.461 C 181.128 209.928,180.469 210.458,180.469 210.640 C 180.469 210.894,183.426 209.428,184.342 208.720 C 185.023 208.193,183.099 208.785,181.934 209.461 M103.125 216.383 C 103.125 218.811,103.294 220.761,103.516 220.898 C 103.767 221.054,103.906 219.535,103.906 216.625 C 103.906 213.875,103.754 212.109,103.516 212.109 C 103.279 212.109,103.125 213.794,103.125 216.383 M176.574 212.485 C 176.258 212.685,176.095 212.944,176.212 213.061 C 176.329 213.178,176.763 213.017,177.177 212.704 C 178.001 212.081,177.500 211.899,176.574 212.485 M228.798 214.873 C 229.275 215.370,229.764 215.679,229.884 215.559 C 230.004 215.438,229.614 215.032,229.016 214.654 L 227.930 213.968 228.798 214.873 M172.211 215.591 C 171.704 216.003,171.377 216.426,171.484 216.533 C 171.592 216.640,172.207 216.304,172.852 215.787 C 173.496 215.270,173.823 214.847,173.578 214.846 C 173.334 214.845,172.718 215.180,172.211 215.591 M230.859 216.657 C 230.859 216.862,231.591 217.724,232.485 218.573 C 233.893 219.910,234.004 219.960,233.309 218.945 C 232.335 217.523,230.859 216.145,230.859 216.657 M165.718 221.354 C 165.447 221.463,165.028 221.933,164.786 222.397 C 164.375 223.188,164.413 223.182,165.377 222.295 C 165.943 221.774,166.406 221.291,166.406 221.221 C 166.406 221.078,166.400 221.079,165.718 221.354 M103.542 222.715 C 103.503 224.237,104.950 232.403,105.614 234.406 C 105.929 235.356,106.571 237.451,107.041 239.063 C 108.441 243.861,112.003 250.971,115.120 255.187 C 119.950 261.719,130.078 272.828,130.078 271.593 C 130.078 271.340,129.858 270.992,129.590 270.820 C 128.193 269.927,118.880 259.260,117.380 256.836 C 116.981 256.191,116.271 255.225,115.801 254.688 C 111.911 250.235,106.181 235.942,104.842 227.350 C 104.142 222.860,103.589 220.887,103.542 222.715 M238.112 225.879 C 239.338 228.027,240.605 229.620,240.616 229.027 C 240.621 228.771,240.457 228.458,240.252 228.331 C 240.047 228.205,239.404 227.227,238.823 226.160 C 238.242 225.092,237.631 224.219,237.465 224.219 C 237.300 224.219,237.591 224.966,238.112 225.879 M161.646 225.681 C 161.048 226.377,160.441 227.734,160.728 227.734 C 160.814 227.734,161.267 227.197,161.735 226.540 C 162.664 225.236,162.595 224.576,161.646 225.681 M158.799 229.277 C 157.924 230.969,158.075 231.216,159.168 229.883 C 160.205 228.618,160.375 228.125,159.776 228.125 C 159.566 228.125,159.127 228.644,158.799 229.277 M240.625 229.891 C 240.625 230.003,241.324 231.541,242.178 233.309 C 246.449 242.147,249.175 253.801,249.505 264.643 C 249.661 269.736,249.823 271.401,250.095 270.697 C 250.970 268.434,249.835 253.935,248.258 247.238 C 246.872 241.348,240.625 227.152,240.625 229.891 M156.678 232.557 C 152.474 239.359,149.829 248.499,149.003 259.082 C 148.593 264.323,149.371 263.190,149.942 257.715 C 150.874 248.763,152.599 242.464,156.038 235.449 C 158.014 231.418,158.367 229.824,156.678 232.557 M288.368 238.800 C 287.235 240.986,285.087 244.795,283.593 247.266 C 282.100 249.736,280.502 252.449,280.044 253.293 C 279.254 254.747,275.439 260.579,273.187 263.777 C 270.973 266.920,272.716 265.472,275.285 262.033 C 281.468 253.756,288.190 242.302,290.011 236.936 C 290.996 234.035,290.609 234.475,288.368 238.800 M270.685 266.830 C 270.445 267.278,270.366 267.762,270.508 267.904 C 270.773 268.169,271.875 266.901,271.875 266.332 C 271.875 265.711,271.113 266.030,270.685 266.830 M149.018 268.509 C 148.726 269.195,149.390 274.911,149.811 275.331 C 150.276 275.797,150.278 274.950,149.821 271.484 C 149.484 268.933,149.233 268.003,149.018 268.509 M266.949 271.343 C 266.114 272.339,265.165 273.437,264.841 273.784 C 264.517 274.131,263.902 274.841,263.474 275.364 L 262.695 276.313 263.522 275.754 C 264.369 275.181,269.141 270.056,269.141 269.719 C 269.141 269.119,268.280 269.756,266.949 271.343 M249.219 273.656 C 249.219 274.483,249.377 274.948,249.609 274.805 C 249.824 274.672,250.000 274.046,250.000 273.414 C 250.000 272.783,249.824 272.266,249.609 272.266 C 249.395 272.266,249.219 272.891,249.219 273.656 M132.245 273.847 C 132.872 274.502,133.451 274.844,133.530 274.606 C 133.725 274.021,132.446 272.656,131.702 272.656 C 131.283 272.656,131.446 273.014,132.245 273.847 M135.352 276.368 C 136.285 277.168,136.977 277.524,137.070 277.252 C 137.156 277.002,137.041 276.735,136.813 276.659 C 136.586 276.583,136.006 276.179,135.523 275.761 C 135.041 275.342,134.453 275.007,134.218 275.015 C 133.982 275.023,134.492 275.632,135.352 276.368 M248.670 277.005 C 248.437 278.460,248.577 279.307,248.979 278.874 C 249.359 278.464,249.645 275.391,249.303 275.391 C 249.097 275.391,248.812 276.117,248.670 277.005 M150.269 276.443 C 149.989 276.896,151.068 280.333,152.144 282.412 C 152.567 283.232,152.725 284.127,152.577 284.867 C 152.377 285.871,152.425 285.965,152.930 285.547 C 153.748 284.868,153.660 283.455,152.679 281.532 C 152.219 280.630,151.546 279.022,151.185 277.958 C 150.823 276.895,150.411 276.213,150.269 276.443 M260.208 278.413 C 257.528 281.359,257.819 281.635,260.693 278.874 C 261.955 277.661,262.816 276.563,262.606 276.433 C 262.396 276.303,261.317 277.194,260.208 278.413 M138.239 278.538 C 138.753 278.966,139.257 279.232,139.360 279.130 C 139.644 278.845,138.406 277.733,137.821 277.747 C 137.525 277.755,137.704 278.093,138.239 278.538 M140.239 279.888 C 140.509 280.213,142.244 281.384,144.095 282.489 C 148.412 285.065,148.370 285.046,147.525 284.081 C 147.130 283.630,145.883 282.794,144.753 282.223 C 143.623 281.651,142.205 280.759,141.601 280.240 C 140.387 279.197,139.468 278.959,140.239 279.888 M247.136 282.962 C 246.221 285.865,246.269 287.743,247.265 288.004 C 247.695 288.116,248.145 288.049,248.265 287.854 C 248.385 287.659,248.222 287.500,247.903 287.500 C 247.075 287.500,246.939 286.402,247.517 284.393 C 247.793 283.436,247.938 282.574,247.841 282.476 C 247.743 282.378,247.846 282.078,248.069 281.809 C 248.293 281.539,248.321 281.224,248.132 281.107 C 247.943 280.990,247.495 281.825,247.136 282.962 M256.168 282.152 C 255.676 282.648,254.614 283.536,253.809 284.125 C 253.003 284.714,252.344 285.375,252.344 285.593 C 252.344 286.049,253.719 285.077,256.250 282.832 C 257.217 281.975,257.795 281.268,257.535 281.262 C 257.275 281.255,256.660 281.656,256.168 282.152 M250.293 286.445 C 249.702 286.679,249.219 287.093,249.219 287.367 C 249.219 287.711,249.641 287.615,250.586 287.058 C 252.549 285.899,252.410 285.609,250.293 286.445 " stroke="none" fill="#9c885f" fill-rule="evenodd"></path><path id="path7" d="M167.773 139.844 C 167.166 140.105,167.357 140.186,168.629 140.207 C 169.530 140.222,170.375 140.059,170.508 139.844 C 170.801 139.369,168.878 139.369,167.773 139.844 M177.553 139.867 C 177.678 140.069,178.415 140.234,179.190 140.234 C 180.919 140.234,180.761 140.030,178.800 139.727 C 177.921 139.591,177.418 139.648,177.553 139.867 M162.394 140.270 C 162.014 140.491,161.347 140.560,160.911 140.421 C 160.475 140.283,159.866 140.380,159.557 140.636 C 159.247 140.893,158.684 140.985,158.306 140.841 C 157.776 140.639,157.723 140.686,158.077 141.042 C 158.368 141.336,158.940 141.398,159.639 141.213 C 160.246 141.052,161.343 140.859,162.077 140.785 C 162.811 140.711,163.593 140.469,163.815 140.247 C 164.352 139.710,163.328 139.727,162.394 140.270 M181.283 140.375 C 181.372 140.453,182.676 140.609,184.180 140.724 C 185.769 140.845,186.505 140.802,185.938 140.622 C 184.972 140.316,180.968 140.103,181.283 140.375 M157.031 140.996 C 157.031 141.305,156.732 141.419,156.249 141.293 C 155.819 141.180,155.566 141.248,155.687 141.443 C 155.807 141.637,156.148 141.797,156.445 141.797 C 157.064 141.797,157.615 141.079,157.266 140.729 C 157.137 140.600,157.031 140.720,157.031 140.996 M187.695 141.005 C 188.441 141.336,190.932 141.559,190.592 141.265 C 190.503 141.188,189.639 141.020,188.672 140.892 C 187.498 140.737,187.174 140.774,187.695 141.005 M151.768 142.170 C 151.641 142.376,151.297 142.452,151.004 142.339 C 150.710 142.226,150.353 142.323,150.211 142.553 C 150.046 142.819,150.281 142.910,150.855 142.804 C 151.352 142.712,152.076 142.623,152.464 142.607 C 152.853 142.591,153.062 142.402,152.930 142.188 C 152.624 141.693,152.068 141.685,151.768 142.170 M193.972 142.144 C 194.386 142.523,196.806 143.160,196.439 142.793 C 196.307 142.662,195.617 142.387,194.904 142.182 C 194.191 141.978,193.771 141.961,193.972 142.144 M145.313 143.738 C 145.313 143.946,145.049 144.015,144.727 143.891 C 144.404 143.768,144.141 143.855,144.141 144.087 C 144.141 144.318,143.833 144.408,143.457 144.287 C 142.895 144.106,142.875 144.139,143.346 144.472 C 143.671 144.702,144.094 144.732,144.323 144.542 C 144.545 144.358,144.898 144.205,145.107 144.203 C 145.317 144.201,145.551 144.010,145.628 143.779 C 145.705 143.548,145.666 143.359,145.540 143.359 C 145.415 143.359,145.313 143.530,145.313 143.738 M200.553 143.652 C 200.715 143.813,200.964 143.960,201.107 143.979 C 201.250 143.998,201.719 144.146,202.148 144.309 C 204.351 145.146,204.636 144.847,202.491 143.951 C 200.971 143.315,200.079 143.178,200.553 143.652 M141.218 145.166 C 140.869 145.515,140.153 145.801,139.628 145.801 C 139.102 145.801,138.672 145.965,138.672 146.166 C 138.672 146.366,138.469 146.405,138.221 146.252 C 137.939 146.078,137.876 146.145,138.053 146.430 C 138.208 146.682,138.543 146.758,138.797 146.600 C 139.050 146.441,139.571 146.263,139.954 146.203 C 140.338 146.143,141.055 145.830,141.548 145.507 C 142.042 145.184,142.591 145.052,142.770 145.213 C 142.948 145.375,142.968 145.288,142.813 145.020 C 142.435 144.363,141.979 144.405,141.218 145.166 M206.825 145.932 C 207.248 146.245,207.820 146.415,208.094 146.310 C 208.369 146.205,208.594 146.278,208.594 146.472 C 208.594 146.667,208.938 146.801,209.358 146.769 C 210.093 146.713,210.082 146.341,209.342 146.240 C 209.146 146.213,208.896 146.147,208.789 146.094 C 208.682 146.040,208.418 145.952,208.203 145.898 C 207.988 145.845,207.769 145.765,207.715 145.722 C 207.661 145.679,207.266 145.580,206.836 145.503 C 206.060 145.363,206.060 145.366,206.825 145.932 M136.719 146.863 C 136.719 147.071,136.455 147.140,136.133 147.016 C 135.811 146.893,135.547 146.986,135.547 147.224 C 135.547 147.462,135.291 147.656,134.978 147.656 C 134.666 147.656,133.776 148.086,133.002 148.612 C 132.228 149.137,131.341 149.470,131.031 149.351 C 130.722 149.232,130.469 149.320,130.469 149.545 C 130.469 150.062,131.866 149.807,132.959 149.091 C 133.415 148.792,133.965 148.505,134.180 148.454 C 134.395 148.403,134.922 148.164,135.352 147.925 C 135.781 147.685,136.265 147.460,136.426 147.426 C 136.587 147.391,136.851 147.320,137.012 147.268 C 137.173 147.216,137.450 147.198,137.627 147.229 C 137.804 147.260,137.837 147.105,137.701 146.885 C 137.388 146.377,136.719 146.363,136.719 146.863 M216.526 149.705 C 216.935 150.080,217.426 150.289,217.619 150.170 C 217.811 150.051,217.969 150.111,217.969 150.302 C 217.969 150.494,218.238 150.651,218.568 150.651 C 219.408 150.651,218.685 150.018,217.607 149.810 C 217.118 149.716,216.507 149.500,216.250 149.331 C 215.994 149.162,216.118 149.330,216.526 149.705 M129.371 150.219 C 129.090 150.538,128.738 150.725,128.590 150.636 C 128.442 150.546,128.094 150.718,127.817 151.018 C 127.165 151.722,127.494 151.707,128.926 150.967 C 129.560 150.639,130.078 150.199,130.078 149.990 C 130.078 149.493,129.985 149.523,129.371 150.219 M126.172 151.883 C 126.172 152.084,125.639 152.470,124.987 152.740 C 124.336 153.009,123.880 153.307,123.974 153.401 C 124.068 153.495,124.803 153.234,125.608 152.822 C 126.511 152.358,126.898 151.965,126.621 151.794 C 126.374 151.641,126.172 151.681,126.172 151.883 M122.656 153.929 C 122.656 154.157,122.480 154.234,122.266 154.102 C 122.051 153.969,121.875 154.046,121.875 154.274 C 121.875 154.501,121.699 154.688,121.484 154.688 C 121.270 154.688,120.742 155.039,120.313 155.469 C 119.883 155.898,119.268 156.250,118.945 156.250 C 118.623 156.250,118.359 156.436,118.359 156.664 C 118.359 156.891,118.182 156.968,117.966 156.834 C 117.750 156.701,117.468 156.865,117.339 157.200 C 117.211 157.534,116.947 157.710,116.753 157.590 C 116.559 157.470,116.295 157.647,116.166 157.983 C 116.037 158.319,115.693 158.594,115.402 158.594 C 115.110 158.594,114.680 158.950,114.447 159.386 C 114.214 159.822,113.873 160.085,113.688 159.971 C 113.504 159.857,112.599 160.555,111.677 161.523 C 110.755 162.490,109.772 163.281,109.493 163.281 C 109.213 163.281,108.984 163.457,108.984 163.672 C 108.984 163.887,108.717 164.063,108.390 164.063 C 108.063 164.063,107.596 164.502,107.351 165.039 C 107.106 165.576,106.796 166.016,106.661 166.016 C 106.361 166.016,102.763 169.435,101.953 170.490 C 101.372 171.247,101.376 171.247,102.429 170.490 C 103.013 170.070,103.497 169.613,103.503 169.473 C 103.563 168.243,121.584 154.297,123.114 154.297 C 123.292 154.297,123.438 154.121,123.438 153.906 C 123.438 153.691,123.262 153.516,123.047 153.516 C 122.832 153.516,122.656 153.702,122.656 153.929 M100.391 171.936 C 100.391 172.184,99.919 173.019,99.342 173.791 C 98.432 175.010,98.411 175.092,99.187 174.415 C 100.271 173.467,101.357 171.484,100.791 171.484 C 100.571 171.484,100.391 171.688,100.391 171.936 M100.000 180.149 C 97.342 181.512,96.748 181.690,96.417 181.223 C 96.103 180.781,96.069 180.814,96.252 181.380 C 96.380 181.773,96.484 182.166,96.484 182.254 C 96.484 182.546,100.947 180.442,101.202 180.029 C 101.341 179.804,101.523 179.648,101.606 179.682 C 101.690 179.715,102.285 179.538,102.930 179.289 C 103.589 179.034,105.042 178.923,106.250 179.035 C 107.648 179.164,108.057 179.122,107.422 178.914 C 105.142 178.166,103.254 178.481,100.000 180.149 M108.846 179.891 C 108.975 180.227,109.174 180.410,109.287 180.297 C 109.400 180.183,109.897 180.527,110.392 181.061 C 110.886 181.595,111.418 182.031,111.573 182.031 C 111.969 182.031,110.104 180.084,109.286 179.643 C 108.756 179.357,108.662 179.410,108.846 179.891 M110.691 189.690 C 110.546 190.097,110.355 190.562,110.268 190.723 C 110.181 190.884,110.276 191.016,110.478 191.016 C 110.868 191.016,111.417 189.412,111.127 189.121 C 111.033 189.027,110.837 189.283,110.691 189.690 M197.054 204.323 C 196.659 204.963,196.975 204.997,198.047 204.432 C 198.983 203.939,198.988 203.918,198.168 203.912 C 197.697 203.909,197.196 204.094,197.054 204.323 M201.172 204.297 C 201.172 204.763,202.235 204.763,203.320 204.297 C 203.947 204.028,203.812 203.956,202.637 203.934 C 201.831 203.919,201.172 204.082,201.172 204.297 M104.850 205.234 C 104.621 205.718,104.550 206.445,104.692 206.849 C 104.884 207.397,105.012 207.196,105.197 206.058 C 105.492 204.244,105.409 204.049,104.850 205.234 M190.039 205.666 L 188.867 206.218 190.032 205.974 C 190.673 205.839,191.412 205.729,191.675 205.729 C 191.938 205.729,192.063 205.583,191.952 205.404 C 191.686 204.974,191.433 205.009,190.039 205.666 M216.016 206.042 C 216.016 206.149,216.895 206.682,217.969 207.227 C 219.043 207.771,219.922 208.128,219.922 208.021 C 219.922 207.914,219.043 207.380,217.969 206.836 C 216.895 206.292,216.016 205.934,216.016 206.042 M187.248 206.822 C 186.798 207.137,186.320 207.283,186.184 207.148 C 186.048 207.012,185.938 207.188,185.938 207.540 C 185.938 207.947,186.150 208.097,186.523 207.954 C 186.846 207.830,187.109 207.572,187.109 207.380 C 187.109 207.188,187.363 207.031,187.672 207.031 C 187.982 207.031,188.344 206.855,188.477 206.641 C 188.830 206.069,188.187 206.164,187.248 206.822 M183.892 208.201 C 182.462 208.632,180.078 210.127,180.078 210.594 C 180.078 210.800,180.448 210.623,180.900 210.202 C 181.353 209.781,182.276 209.230,182.951 208.978 C 185.841 207.902,186.389 207.450,183.892 208.201 M175.781 212.695 C 174.927 213.325,174.686 213.672,175.100 213.672 C 175.453 213.672,175.884 213.418,176.058 213.108 C 176.231 212.798,176.811 212.370,177.347 212.157 C 177.885 211.942,178.049 211.757,177.713 211.744 C 177.378 211.730,176.509 212.158,175.781 212.695 M172.754 214.839 C 171.001 215.908,171.162 216.077,173.047 215.145 C 173.906 214.719,174.609 214.302,174.609 214.217 C 174.609 213.884,173.968 214.099,172.754 214.839 M170.094 216.980 C 169.457 217.462,169.438 217.555,169.972 217.566 C 170.321 217.573,170.826 217.314,171.094 216.992 C 171.717 216.241,171.081 216.233,170.094 216.980 M166.737 220.020 C 165.552 221.147,163.718 223.031,162.662 224.204 L 160.742 226.338 162.414 225.041 C 163.334 224.328,164.349 223.235,164.670 222.614 C 164.992 221.993,165.423 221.484,165.628 221.484 C 165.834 221.484,166.827 220.693,167.836 219.727 C 168.845 218.760,169.496 217.969,169.282 217.969 C 169.068 217.969,167.923 218.892,166.737 220.020 M103.811 220.020 C 103.714 220.933,103.778 221.943,103.954 222.266 C 104.151 222.627,104.278 221.992,104.285 220.605 C 104.299 217.962,104.062 217.669,103.811 220.020 M104.388 224.609 C 104.388 225.361,104.468 225.669,104.566 225.293 C 104.664 224.917,104.664 224.302,104.566 223.926 C 104.468 223.550,104.388 223.857,104.388 224.609 M159.833 227.587 C 158.997 228.388,158.987 228.442,159.708 228.253 C 160.140 228.140,160.597 227.777,160.724 227.445 C 161.059 226.572,160.859 226.604,159.833 227.587 M105.524 230.859 C 105.524 231.182,105.675 231.797,105.859 232.227 C 106.071 232.719,106.195 232.791,106.195 232.422 C 106.195 232.100,106.044 231.484,105.859 231.055 C 105.648 230.562,105.524 230.490,105.524 230.859 M153.000 239.276 C 152.082 241.200,152.211 241.528,153.171 239.709 C 153.606 238.883,153.894 238.138,153.809 238.054 C 153.725 237.970,153.360 238.519,153.000 239.276 M112.059 248.242 C 112.270 248.672,112.729 249.375,113.079 249.805 L 113.715 250.586 113.331 249.805 C 113.120 249.375,112.662 248.672,112.312 248.242 L 111.676 247.461 112.059 248.242 M115.199 253.450 C 115.410 253.844,115.889 254.415,116.264 254.720 C 116.686 255.062,116.592 254.789,116.017 254.004 C 114.991 252.602,114.606 252.342,115.199 253.450 M250.059 255.664 C 250.055 255.879,250.298 257.900,250.599 260.156 L 251.146 264.258 250.949 260.912 C 250.791 258.229,250.090 254.094,250.059 255.664 M119.344 258.691 C 120.182 259.712,120.931 260.547,121.008 260.547 C 121.287 260.547,119.590 258.377,118.717 257.617 C 118.223 257.188,118.505 257.671,119.344 258.691 M148.202 265.625 C 148.202 268.740,148.263 270.015,148.337 268.457 C 148.411 266.899,148.411 264.351,148.337 262.793 C 148.263 261.235,148.202 262.510,148.202 265.625 M122.461 262.500 C 123.300 263.359,124.075 264.063,124.182 264.063 C 124.289 264.063,123.691 263.359,122.852 262.500 C 122.012 261.641,121.238 260.938,121.131 260.938 C 121.023 260.938,121.622 261.641,122.461 262.500 M273.564 261.816 C 273.129 262.300,272.633 262.959,272.462 263.281 C 272.132 263.903,272.222 263.818,273.804 262.012 C 274.322 261.421,274.658 260.938,274.550 260.938 C 274.443 260.938,273.999 261.333,273.564 261.816 M267.691 269.043 C 260.499 277.455,249.432 287.063,248.271 285.902 C 248.171 285.801,248.523 284.229,249.055 282.410 C 250.318 278.087,251.188 273.055,251.106 270.554 C 251.047 268.755,251.026 268.711,250.898 270.117 C 250.602 273.363,249.550 278.838,248.562 282.278 C 246.995 287.733,247.838 288.006,253.320 283.819 C 257.857 280.355,273.359 264.063,272.118 264.063 C 272.025 264.063,270.032 266.304,267.691 269.043 M125.978 266.345 C 129.855 270.493,138.671 277.713,143.848 280.981 C 146.230 282.485,144.720 281.138,141.895 279.239 C 137.024 275.966,132.881 272.567,126.760 266.822 C 124.395 264.603,124.290 264.539,125.978 266.345 M148.639 273.683 C 148.851 275.776,150.230 280.222,151.318 282.328 C 152.266 284.160,152.149 284.510,150.684 284.229 C 149.781 284.056,149.583 284.096,150.000 284.370 C 151.984 285.670,152.817 284.506,151.616 282.113 C 150.700 280.288,149.747 277.387,149.009 274.175 C 148.446 271.721,148.440 271.713,148.639 273.683 M145.313 281.796 C 145.313 282.081,148.936 284.007,149.122 283.821 C 149.218 283.725,148.400 283.192,147.304 282.637 C 146.209 282.082,145.313 281.703,145.313 281.796 " stroke="none" fill="#ddab63" fill-rule="evenodd"></path><path id="path8" d="M279.127 69.894 C 278.722 70.342,278.511 70.828,278.658 70.975 C 279.028 71.346,280.204 70.103,280.016 69.540 C 279.919 69.249,279.592 69.379,279.127 69.894 M266.172 70.627 C 264.118 73.265,260.548 82.471,260.547 85.137 C 260.547 86.346,261.225 84.866,261.701 82.617 C 261.975 81.328,262.546 79.395,262.970 78.320 C 263.394 77.246,264.057 75.547,264.442 74.544 C 265.145 72.716,265.621 71.986,266.895 70.784 C 267.271 70.429,267.578 70.002,267.578 69.835 C 267.578 69.250,266.985 69.584,266.172 70.627 M281.076 70.410 C 281.563 72.003,282.006 72.568,282.019 71.614 C 282.035 70.494,281.648 69.531,281.182 69.531 C 280.974 69.531,280.926 69.922,281.076 70.410 M268.661 71.252 C 269.032 71.983,269.391 72.344,269.458 72.054 C 269.611 71.393,268.849 69.922,268.354 69.922 C 268.151 69.922,268.289 70.520,268.661 71.252 M275.286 75.450 C 273.960 78.406,273.700 79.297,274.161 79.297 C 274.374 79.297,274.668 78.748,274.815 78.077 C 274.963 77.406,275.432 76.266,275.858 75.544 C 276.284 74.822,276.552 74.009,276.454 73.737 C 276.356 73.465,275.831 74.236,275.286 75.450 M270.313 77.711 C 270.313 78.369,270.488 78.906,270.703 78.906 C 270.918 78.906,271.094 78.477,271.094 77.953 C 271.094 77.428,270.918 76.891,270.703 76.758 C 270.475 76.617,270.313 77.014,270.313 77.711 M281.515 77.607 C 281.059 79.260,280.814 81.421,281.118 81.120 C 281.298 80.941,281.459 80.677,281.476 80.534 C 281.492 80.391,281.645 79.606,281.815 78.790 C 282.129 77.288,281.877 76.296,281.515 77.607 M272.798 81.844 C 271.986 84.420,271.274 84.452,271.431 81.906 C 271.506 80.686,271.388 80.078,271.076 80.078 C 270.609 80.078,270.684 84.486,271.160 84.962 C 271.712 85.514,272.587 84.545,273.203 82.698 C 273.576 81.580,273.972 80.444,274.083 80.176 C 274.193 79.907,274.102 79.688,273.881 79.688 C 273.659 79.688,273.172 80.658,272.798 81.844 M280.469 83.031 C 280.469 83.598,280.638 83.926,280.859 83.789 C 281.074 83.656,281.250 83.206,281.250 82.789 C 281.250 82.372,281.074 82.031,280.859 82.031 C 280.645 82.031,280.469 82.481,280.469 83.031 M280.078 85.179 C 280.078 85.622,280.254 85.875,280.469 85.742 C 280.684 85.609,280.859 85.247,280.859 84.938 C 280.859 84.628,280.684 84.375,280.469 84.375 C 280.254 84.375,280.078 84.737,280.078 85.179 M260.446 86.458 C 259.993 87.577,260.074 88.520,260.580 88.014 C 260.813 87.781,260.943 87.174,260.869 86.666 C 260.751 85.853,260.701 85.828,260.446 86.458 M278.941 89.882 C 278.277 92.097,278.680 92.245,279.425 90.060 C 279.758 89.082,279.893 88.281,279.726 88.281 C 279.558 88.281,279.205 89.001,278.941 89.882 M260.003 89.290 C 259.353 90.982,259.909 102.734,260.638 102.734 C 260.865 102.734,260.895 101.933,260.713 100.684 C 260.550 99.556,260.434 96.392,260.456 93.652 C 260.497 88.658,260.443 88.142,260.003 89.290 M277.947 92.914 C 277.414 94.595,280.159 95.688,282.023 94.536 C 283.045 93.905,282.101 93.637,280.387 94.072 C 278.581 94.531,277.590 94.128,278.438 93.281 C 278.997 92.722,279.048 92.188,278.542 92.188 C 278.342 92.188,278.074 92.514,277.947 92.914 M285.352 93.725 C 284.616 94.032,284.627 94.066,285.551 94.310 C 286.990 94.690,292.383 94.402,292.383 93.945 C 292.383 93.461,286.432 93.274,285.352 93.725 M294.531 94.141 C 294.531 94.355,294.663 94.546,294.824 94.564 C 297.110 94.818,297.035 94.833,296.272 94.275 C 295.426 93.656,294.531 93.587,294.531 94.141 M260.547 104.860 C 260.547 105.410,260.723 105.859,260.938 105.859 C 261.152 105.859,261.328 105.518,261.328 105.101 C 261.328 104.684,261.152 104.234,260.938 104.102 C 260.716 103.965,260.547 104.293,260.547 104.860 M260.938 107.399 C 260.938 107.841,261.113 108.203,261.328 108.203 C 261.543 108.203,261.719 107.950,261.719 107.640 C 261.719 107.331,261.543 106.969,261.328 106.836 C 261.113 106.703,260.938 106.956,260.938 107.399 M261.356 109.645 C 261.444 110.659,262.055 111.519,262.082 110.668 C 262.097 110.197,261.934 109.703,261.719 109.570 C 261.504 109.438,261.340 109.471,261.356 109.645 M285.610 112.315 C 284.893 112.627,284.379 113.015,284.467 113.179 C 284.554 113.343,284.948 114.224,285.341 115.137 C 285.734 116.050,286.205 116.797,286.387 116.797 C 286.868 116.797,286.810 116.554,285.903 114.775 C 285.072 113.147,285.269 112.523,286.621 112.506 C 286.890 112.503,287.109 112.324,287.109 112.109 C 287.109 111.636,287.204 111.623,285.610 112.315 M262.137 114.355 C 262.244 115.501,262.838 116.139,262.863 115.137 C 262.878 114.546,262.715 114.063,262.500 114.063 C 262.285 114.063,262.122 114.194,262.137 114.355 M262.647 117.090 C 262.757 117.466,263.032 118.813,263.258 120.083 C 263.672 122.413,263.892 122.957,264.268 122.581 C 264.590 122.259,263.203 116.406,262.804 116.406 C 262.608 116.406,262.537 116.714,262.647 117.090 M286.719 117.577 C 286.719 117.816,287.231 119.013,287.857 120.236 C 288.484 121.460,289.558 123.911,290.245 125.684 C 290.932 127.456,291.650 128.906,291.841 128.906 C 292.368 128.906,292.260 128.445,291.405 127.041 C 290.976 126.338,290.625 125.568,290.625 125.330 C 290.625 124.682,287.464 117.602,287.065 117.355 C 286.875 117.238,286.719 117.337,286.719 117.577 M264.230 124.609 C 264.230 125.039,264.368 125.391,264.537 125.391 C 264.706 125.391,264.844 125.039,264.844 124.609 C 264.844 124.180,264.706 123.828,264.537 123.828 C 264.368 123.828,264.230 124.180,264.230 124.609 M292.068 130.056 C 292.184 130.498,292.434 130.859,292.624 130.859 C 293.151 130.859,293.035 130.229,292.414 129.713 C 291.958 129.335,291.896 129.396,292.068 130.056 M292.781 132.129 C 293.424 134.339,293.932 135.547,294.219 135.547 C 294.646 135.547,294.614 134.863,294.175 134.591 C 293.978 134.470,293.699 133.669,293.554 132.810 C 293.409 131.952,293.119 131.250,292.908 131.250 C 292.696 131.250,292.639 131.642,292.781 132.129 M265.631 136.403 C 265.628 136.981,265.801 137.563,266.016 137.695 C 266.514 138.004,266.514 136.709,266.016 135.938 C 265.719 135.479,265.636 135.581,265.631 136.403 M294.917 137.728 C 294.906 138.471,296.690 144.527,296.920 144.529 C 297.187 144.531,296.192 139.924,295.786 139.276 C 295.645 139.051,295.494 138.631,295.450 138.343 C 295.355 137.716,294.924 137.218,294.917 137.728 M265.950 142.190 C 266.112 145.594,266.797 145.416,266.797 141.969 C 266.797 140.217,266.649 139.453,266.309 139.452 C 265.952 139.452,265.855 140.190,265.950 142.190 M297.026 146.082 C 297.166 146.827,297.471 147.618,297.705 147.839 C 298.008 148.128,298.050 147.853,297.852 146.875 C 297.699 146.123,297.393 145.332,297.173 145.117 C 296.899 144.851,296.853 145.158,297.026 146.082 M266.016 149.242 C 266.016 150.981,266.160 151.910,266.406 151.758 C 266.621 151.625,266.797 150.384,266.797 149.000 C 266.797 147.583,266.626 146.484,266.406 146.484 C 266.183 146.484,266.016 147.664,266.016 149.242 M214.275 148.694 C 215.160 149.341,215.741 149.372,215.538 148.761 C 215.454 148.510,214.974 148.273,214.471 148.236 C 213.613 148.173,213.601 148.201,214.275 148.694 M297.951 149.414 C 298.054 149.951,298.293 150.391,298.483 150.391 C 298.886 150.391,298.924 149.923,298.591 149.055 C 298.215 148.075,297.746 148.338,297.951 149.414 M220.846 151.211 C 220.893 151.458,221.890 152.188,223.063 152.832 C 224.728 153.747,225.006 153.822,224.333 153.174 C 223.858 152.717,223.199 152.344,222.868 152.344 C 222.537 152.344,222.266 152.168,222.266 151.953 C 222.266 151.738,222.017 151.563,221.712 151.563 C 221.408 151.563,221.069 151.382,220.960 151.162 C 220.848 150.935,220.798 150.956,220.846 151.211 M298.438 151.367 C 298.438 151.689,298.613 151.953,298.828 151.953 C 299.043 151.953,299.219 151.689,299.219 151.367 C 299.219 151.045,299.043 150.781,298.828 150.781 C 298.613 150.781,298.438 151.045,298.438 151.367 M298.828 153.274 C 298.828 153.596,299.004 153.969,299.219 154.102 C 299.434 154.234,299.609 154.079,299.609 153.757 C 299.609 153.435,299.434 153.062,299.219 152.930 C 299.004 152.797,298.828 152.952,298.828 153.274 M265.631 154.199 C 265.636 155.036,265.721 155.144,266.016 154.688 C 266.510 153.923,266.510 153.125,266.016 153.125 C 265.801 153.125,265.628 153.608,265.631 154.199 M228.343 155.652 C 229.338 156.404,229.906 156.413,229.157 155.664 C 228.835 155.342,228.349 155.078,228.078 155.078 C 227.801 155.078,227.918 155.330,228.343 155.652 M265.234 156.273 C 265.234 156.715,265.410 156.969,265.625 156.836 C 265.840 156.703,266.016 156.341,266.016 156.032 C 266.016 155.722,265.840 155.469,265.625 155.469 C 265.410 155.469,265.234 155.831,265.234 156.273 M231.641 156.861 C 231.641 157.474,233.878 158.984,234.788 158.984 C 235.130 158.984,235.121 158.826,234.751 158.381 C 234.475 158.049,234.014 157.867,233.726 157.978 C 233.439 158.088,233.203 158.051,233.203 157.894 C 233.203 157.738,232.852 157.390,232.422 157.122 C 231.992 156.854,231.641 156.736,231.641 156.861 M263.371 161.544 C 262.668 162.929,262.228 164.060,262.394 164.058 C 262.824 164.051,264.453 161.450,264.453 160.771 C 264.453 160.458,264.629 160.094,264.844 159.961 C 265.299 159.680,265.371 158.975,264.941 159.005 C 264.780 159.016,264.073 160.158,263.371 161.544 M236.230 159.862 C 236.929 160.086,237.500 160.420,237.500 160.603 C 237.500 160.787,237.737 160.938,238.026 160.938 C 238.316 160.938,238.963 161.294,239.465 161.729 C 239.968 162.165,240.785 162.623,241.283 162.748 C 241.780 162.873,242.188 163.125,242.188 163.309 C 242.188 163.492,242.891 163.831,243.750 164.063 C 244.609 164.294,245.313 164.663,245.313 164.882 C 245.313 165.101,245.488 165.172,245.703 165.039 C 245.918 164.906,246.094 164.984,246.094 165.211 C 246.094 165.439,246.364 165.625,246.693 165.625 C 247.023 165.625,247.682 165.875,248.158 166.180 C 249.021 166.734,250.486 167.087,253.178 167.389 C 253.960 167.477,254.751 167.576,254.936 167.610 C 255.701 167.748,256.250 167.552,256.250 167.139 C 256.250 166.846,255.537 166.759,254.102 166.878 C 252.882 166.979,251.953 166.896,251.953 166.686 C 251.953 166.482,251.602 166.407,251.172 166.519 C 250.742 166.632,250.391 166.546,250.391 166.328 C 250.391 166.110,250.138 166.029,249.830 166.147 C 249.522 166.266,249.214 166.230,249.146 166.067 C 248.943 165.578,243.697 163.268,243.319 163.501 C 243.126 163.621,242.968 163.576,242.966 163.402 C 242.965 163.228,242.394 162.760,241.697 162.362 C 237.533 159.984,236.296 159.379,235.666 159.415 C 235.276 159.437,235.529 159.637,236.230 159.862 M300.391 162.695 C 300.391 163.018,300.566 163.281,300.781 163.281 C 300.996 163.281,301.172 163.018,301.172 162.695 C 301.172 162.373,300.996 162.109,300.781 162.109 C 300.566 162.109,300.391 162.373,300.391 162.695 M261.122 164.862 C 260.965 165.116,260.054 165.669,259.097 166.093 C 258.140 166.516,257.445 166.950,257.552 167.057 C 257.660 167.165,258.531 166.906,259.487 166.483 C 261.174 165.737,262.003 164.998,261.602 164.596 C 261.494 164.489,261.278 164.609,261.122 164.862 M301.563 170.117 C 301.563 170.699,301.731 171.036,301.953 170.898 C 302.168 170.766,302.344 170.414,302.344 170.117 C 302.344 169.820,302.168 169.469,301.953 169.336 C 301.731 169.198,301.563 169.535,301.563 170.117 M301.981 176.074 C 302.003 177.249,302.074 177.385,302.344 176.758 C 302.810 175.672,302.810 174.609,302.344 174.609 C 302.129 174.609,301.965 175.269,301.981 176.074 M301.396 197.136 C 301.259 197.494,301.328 197.968,301.550 198.190 C 301.827 198.468,301.953 198.265,301.953 197.539 C 301.953 196.334,301.758 196.193,301.396 197.136 M300.781 200.804 C 300.781 201.247,300.957 201.500,301.172 201.367 C 301.387 201.234,301.563 200.872,301.563 200.563 C 301.563 200.253,301.387 200.000,301.172 200.000 C 300.957 200.000,300.781 200.362,300.781 200.804 M300.391 203.148 C 300.391 203.590,300.566 203.844,300.781 203.711 C 300.996 203.578,301.172 203.216,301.172 202.907 C 301.172 202.597,300.996 202.344,300.781 202.344 C 300.566 202.344,300.391 202.706,300.391 203.148 M216.041 206.475 C 216.724 207.299,219.472 208.677,219.902 208.411 C 220.091 208.294,220.335 208.380,220.445 208.601 C 220.555 208.823,220.604 208.795,220.555 208.540 C 220.506 208.285,220.169 208.033,219.806 207.979 C 219.443 207.926,218.333 207.428,217.339 206.872 C 216.273 206.276,215.740 206.114,216.041 206.475 M299.615 207.520 C 299.620 208.230,299.694 208.286,300.000 207.813 C 300.489 207.055,300.489 206.641,300.000 206.641 C 299.785 206.641,299.612 207.036,299.615 207.520 M222.405 209.961 C 222.727 210.283,223.253 210.547,223.572 210.547 C 223.892 210.547,224.221 210.749,224.303 210.996 C 224.386 211.243,224.677 211.371,224.951 211.279 C 225.225 211.188,224.716 210.722,223.820 210.244 C 221.907 209.223,221.607 209.163,222.405 209.961 M298.425 212.598 C 298.161 213.726,297.775 214.862,297.568 215.124 C 297.361 215.385,297.275 215.824,297.377 216.100 C 297.537 216.530,298.286 215.175,298.613 213.867 C 298.666 213.652,298.809 213.213,298.930 212.891 C 299.385 211.677,299.525 210.547,299.221 210.547 C 299.048 210.547,298.690 211.470,298.425 212.598 M227.062 213.184 C 227.403 213.560,228.265 214.201,228.978 214.608 C 230.233 215.326,230.224 215.305,228.711 213.941 C 227.104 212.492,225.957 211.966,227.062 213.184 M232.364 217.724 C 233.074 218.556,233.842 219.649,234.072 220.153 C 234.301 220.657,234.639 220.976,234.823 220.863 C 235.006 220.750,235.156 220.921,235.156 221.244 C 235.156 221.567,235.475 222.060,235.866 222.341 C 236.256 222.622,236.690 223.159,236.830 223.535 C 236.970 223.911,237.288 224.219,237.536 224.219 C 237.835 224.219,237.861 224.055,237.612 223.730 C 235.120 220.478,232.741 217.624,231.996 216.992 C 231.448 216.528,231.598 216.826,232.364 217.724 M296.741 217.659 C 296.530 218.466,296.693 219.082,297.022 218.717 C 297.420 218.276,297.663 216.797,297.338 216.797 C 297.133 216.797,296.865 217.185,296.741 217.659 M295.168 222.363 C 294.797 223.747,294.858 224.568,295.277 223.828 C 295.881 222.761,296.152 221.484,295.775 221.484 C 295.571 221.484,295.298 221.880,295.168 222.363 M238.858 226.233 C 239.374 227.142,239.692 228.054,239.565 228.261 C 239.433 228.474,239.539 228.509,239.810 228.341 C 240.113 228.154,240.365 228.345,240.502 228.867 C 240.620 229.318,240.893 229.688,241.109 229.688 C 241.325 229.688,241.217 229.292,240.869 228.809 C 240.521 228.325,239.887 227.282,239.460 226.491 C 239.033 225.700,238.511 224.947,238.302 224.817 C 238.092 224.688,238.342 225.325,238.858 226.233 M293.626 226.336 C 293.290 227.320,293.145 228.125,293.302 228.125 C 293.793 228.125,294.924 225.236,294.570 224.883 C 294.384 224.696,293.964 225.342,293.626 226.336 M288.574 237.406 C 284.458 245.698,284.045 247.025,287.784 239.942 C 289.060 237.525,290.231 235.674,290.385 235.828 C 290.540 235.983,290.541 235.763,290.388 235.340 C 290.235 234.917,290.250 234.697,290.420 234.851 C 290.829 235.221,293.088 230.430,292.690 230.038 C 292.521 229.871,290.669 233.187,288.574 237.406 " stroke="none" fill="#bc623c" fill-rule="evenodd"></path></g></svg>