<?xml version="1.0" standalone="no"?>
<!DOCTYPE svg PUBLIC "-//W3C//DTD SVG 20010904//EN"
 "http://www.w3.org/TR/2001/REC-SVG-20010904/DTD/svg10.dtd">
<svg version="1.0" xmlns="http://www.w3.org/2000/svg"
 width="1024.000000pt" height="1024.000000pt" viewBox="0 0 1024.000000 1024.000000"
 preserveAspectRatio="xMidYMid meet">

<g transform="translate(0.000000,1024.000000) scale(0.100000,-0.100000)"
fill="#000000" stroke="none">
<path d="M7116 8379 c-45 -58 -73 -118 -67 -146 1 -7 -3 -13 -9 -13 -6 0 -8
-5 -5 -11 4 -6 1 -16 -6 -22 -12 -10 -13 -80 -8 -397 4 -212 7 -726 8 -1142 1
-498 4 -758 11 -758 7 0 10 -263 11 -767 1 -423 4 -926 8 -1120 l6 -352 38 47
c22 26 81 112 133 192 51 80 98 151 104 158 6 7 23 38 37 70 14 31 42 93 63
137 20 44 40 93 44 109 4 15 16 47 26 70 27 57 117 324 140 417 20 78 55 265
70 379 25 184 20 586 -9 725 -6 28 -22 124 -37 214 -14 90 -32 187 -40 215 -8
28 -28 101 -44 161 -54 203 -199 593 -247 664 -29 43 -64 124 -61 139 2 8 44
29 95 47 155 55 340 170 395 244 28 38 28 41 14 70 -30 57 -191 112 -336 114
-47 0 -141 -5 -209 -11 -81 -8 -128 -9 -134 -3 -7 7 -1 39 16 93 53 169 93
425 78 498 -11 53 -32 48 -85 -21z"/>
<path d="M6822 6585 c0 -16 2 -22 5 -12 2 9 2 23 0 30 -3 6 -5 -1 -5 -18z"/>
</g>
</svg>
